# xmcd
#
# Track frame offsets:
#	150
#	18781
#	36333
#	50141
#	74754
#	90506
#	104254
#	119637
#	138080
#
# Disc length: 2218 seconds
#
# Revision: 0
# Processed by: cddbd v1.5.2PL0 Copyright (c) Steve Scherf et al.
# Submitted via: audiograbber 1.83.01
#
DISCID=7d08a809
DTITLE=Bachman-Turner Overdrive - Classic Album Set [2016] [CD 8) - Rock n' Rol
DTITLE=l Nights
DYEAR=1979
DGENRE=Rock
TTITLE0=Jamaica
TTITLE1=Heartaches
TTITLE2=Heaven Tonight
TTITLE3=Rock And Roll Nights
TTITLE4=Wastin' Time
TTITLE5=Here She Comes Again
TTITLE6=End Of The Line
TTITLE7=Rock And Roll Hell
TTITLE8=Amelia Earhart
EXTD=
EXTT0=
EXTT1=
EXTT2=
EXTT3=
EXTT4=
EXTT5=
EXTT6=
EXTT7=
EXTT8=
PLAYORDER=
